<?xml version="1.0" encoding="utf-8"?>
<!-- Generator: Adobe Illustrator 21.0.2, SVG Export Plug-In . SVG Version: 6.00 Build 0)  -->
<svg version="1.1" id="Слой_1" xmlns="http://www.w3.org/2000/svg" xmlns:xlink="http://www.w3.org/1999/xlink" x="0px" y="0px"
	 viewBox="0 0 1920 1080" style="enable-background:new 0 0 1920 1080;" xml:space="preserve">
<style type="text/css">
	.st0{fill:#54CE2C;}
</style>
<g>
	<path class="st0" d="M572,463.5c-16.3,0-29.5-13.2-29.5-29.5s13.2-29.5,29.5-29.5s29.5,13.2,29.5,29.5S588.3,463.5,572,463.5z"/>
	<path d="M572,405c16,0,29,13,29,29s-13,29-29,29s-29-13-29-29S556,405,572,405 M572,404c-16.6,0-30,13.4-30,30s13.4,30,30,30
		s30-13.4,30-30S588.6,404,572,404L572,404z"/>
</g>
</svg>
